<?xml version="1.0" standalone="no"?>
<!DOCTYPE svg PUBLIC "-//W3C//DTD SVG 20010904//EN"
 "http://www.w3.org/TR/2001/REC-SVG-20010904/DTD/svg10.dtd">
<svg version="1.0" xmlns="http://www.w3.org/2000/svg"
 width="600.000000pt" height="600.000000pt" viewBox="0 0 600.000000 600.000000"
 preserveAspectRatio="xMidYMid meet">
<metadata>
Created by potrace 1.14, written by Peter Selinger 2001-2017
</metadata>
<g transform="translate(0.000000,600.000000) scale(0.100000,-0.100000)"
fill="#000000" stroke="none">
<path d="M2798 5995 c-2 -1 -39 -5 -83 -9 -87 -7 -212 -25 -285 -41 -14 -3
-38 -8 -55 -10 -131 -23 -391 -106 -565 -181 -128 -56 -382 -190 -388 -205 -2
-5 -8 -9 -13 -9 -13 0 -133 -81 -137 -92 -2 -4 -8 -8 -13 -8 -6 0 -15 -4 -22
-10 -11 -9 -106 -85 -151 -120 -52 -41 -121 -106 -226 -213 -137 -139 -139
-142 -210 -232 -30 -38 -58 -71 -62 -73 -5 -2 -8 -8 -8 -14 0 -8 -46 -76 -61
-88 -12 -11 -138 -223 -172 -290 -12 -25 -26 -48 -30 -51 -5 -3 -8 -9 -7 -13
0 -4 -13 -33 -29 -66 -17 -33 -28 -60 -25 -60 4 0 2 -6 -4 -12 -6 -7 -22 -44
-37 -83 -15 -38 -31 -79 -36 -90 -14 -33 -76 -234 -84 -274 -2 -12 -7 -31 -10
-41 -8 -24 -10 -36 -39 -187 -3 -11 -7 -41 -11 -65 -3 -23 -8 -59 -11 -78 -19
-130 -25 -534 -10 -675 24 -234 107 -597 165 -730 5 -11 17 -40 26 -65 88
-236 280 -572 437 -765 9 -11 39 -48 66 -81 87 -106 290 -306 392 -384 24 -19
51 -41 58 -48 7 -6 44 -33 80 -59 37 -26 69 -51 70 -55 2 -5 7 -8 12 -8 4 0
34 -18 66 -39 252 -168 623 -323 949 -396 120 -27 144 -31 225 -41 25 -3 51
-7 58 -9 78 -26 642 -26 771 0 12 2 44 7 69 10 26 3 54 7 62 9 8 3 33 7 55 11
22 3 54 10 70 15 17 5 41 11 55 14 68 11 330 93 405 126 22 10 56 24 75 31 48
18 264 126 325 163 102 61 220 139 223 147 2 5 8 9 13 9 6 0 15 4 22 10 7 5
63 50 125 100 177 143 365 336 496 510 31 41 60 80 64 85 19 24 92 134 92 139
0 3 7 14 15 23 8 10 15 23 16 28 0 6 7 17 14 26 21 22 147 271 184 364 103
253 173 515 206 770 29 225 24 663 -9 840 -3 17 -10 57 -16 90 -14 84 -65 289
-90 357 -11 32 -20 63 -20 69 0 6 -6 25 -14 42 -8 18 -25 61 -39 97 -14 36
-40 97 -58 135 -18 39 -33 72 -33 75 -1 3 -5 11 -10 18 -4 8 -23 41 -40 75
-81 154 -258 423 -288 435 -4 2 -8 8 -8 14 0 5 -6 15 -12 23 -7 7 -33 37 -58
66 -81 96 -288 296 -397 384 -103 83 -277 203 -373 259 -46 26 -291 149 -345
172 -132 57 -376 135 -498 160 -10 2 -26 5 -35 8 -32 9 -97 19 -129 20 -18 1
-33 4 -33 8 0 4 -8 6 -17 6 -10 0 -38 2 -63 6 -25 3 -63 9 -85 12 -40 6 -501
14 -507 9z"/>
</g>
</svg>
